HIERARCHY
ROOT Hips
{
	OFFSET 0.000000 0.000000 0.000000
	CHANNELS 6 Xposition Yposition Zposition Xrotation Yrotation Zrotation
	JOINT LeftUpLeg_virtual
	{
		OFFSET 0.000000 0.000000 0.000000
		CHANNELS 3 Xrotation Yrotation Zrotation
		JOINT LeftUpLeg
		{
			OFFSET 13.026900 -6.336304 -1.092800
			CHANNELS 3 Xrotation Yrotation Zrotation
			JOINT LeftLeg
			{
				OFFSET 0.524474 -46.096886 9.782700
				CHANNELS 3 Xrotation Yrotation Zrotation
				JOINT LeftFoot
				{
					OFFSET -0.524474 -53.427422 -12.948200
					CHANNELS 3 Xrotation Yrotation Zrotation
					JOINT LeftToeBase
					{
						OFFSET 0.192200 -14.009700 16.364100
						CHANNELS 3 Xrotation Yrotation Zrotation
						JOINT LeftToe_End
						{
							OFFSET -1.784700 -0.561700 9.474800
							CHANNELS 3 Xrotation Yrotation Zrotation
							End Site
							{
								OFFSET 0 0 0
							}
						}
					}
				}
			}
		}
	}
	JOINT RightUpLeg_virtual
	{
		OFFSET 0.000000 0.000000 0.000000
		CHANNELS 3 Xrotation Yrotation Zrotation
		JOINT RightUpLeg
		{
			OFFSET -12.883000 -6.336304 -1.092800
			CHANNELS 3 Xrotation Yrotation Zrotation
			JOINT RightLeg
			{
				OFFSET -0.524587 -46.096825 9.782800
				CHANNELS 3 Xrotation Yrotation Zrotation
				JOINT RightFoot
				{
					OFFSET 0.524587 -53.427383 -12.948300
					CHANNELS 3 Xrotation Yrotation Zrotation
					JOINT RightToeBase
					{
						OFFSET -0.192200 -14.009700 16.364100
						CHANNELS 3 Xrotation Yrotation Zrotation
						JOINT RightToe_End
						{
							OFFSET 1.784700 -0.561700 9.474800
							CHANNELS 3 Xrotation Yrotation Zrotation
							End Site
							{
								OFFSET 0 0 0
							}
						}
					}
				}
			}
		}
	}
	JOINT Spine_virtual
	{
		OFFSET 0.000000 0.000000 0.000000
		CHANNELS 3 Xrotation Yrotation Zrotation
		JOINT Spine
		{
			OFFSET 0.072000 7.257294 -0.789700
			CHANNELS 3 Xrotation Yrotation Zrotation
			JOINT Spine1
			{
				OFFSET 0.000000 12.508769 -0.658067
				CHANNELS 3 Xrotation Yrotation Zrotation
				JOINT Spine1_split
				{
					OFFSET 0.000000 12.508769 -0.658067
					CHANNELS 3 Xrotation Yrotation Zrotation
					JOINT Spine2
					{
						OFFSET 0.000000 12.508769 -0.658067
						CHANNELS 3 Xrotation Yrotation Zrotation
						JOINT Neck_virtual
						{
							OFFSET 0.000000 0.000000 0.000000
							CHANNELS 3 Xrotation Yrotation Zrotation
							JOINT Neck
							{
								OFFSET 0.000000 14.033295 7.520400
								CHANNELS 3 Xrotation Yrotation Zrotation
								JOINT Head
								{
									OFFSET 0.000000 8.198502 5.703100
									CHANNELS 3 Xrotation Yrotation Zrotation
									JOINT HeadTop_End
									{
										OFFSET 0.000000 17.760803 13.332701
										CHANNELS 3 Xrotation Yrotation Zrotation
										End Site
										{
											OFFSET 0 0 0
										}
									}
								}
							}
						}
						JOINT LeftShoulder_virtual
						{
							OFFSET 0.000000 0.000000 0.000000
							CHANNELS 3 Xrotation Yrotation Zrotation
							JOINT LeftShoulder
							{
								OFFSET 6.292450 5.785301 -0.669000
								CHANNELS 3 Xrotation Yrotation Zrotation
								JOINT LeftShoulder_split
								{
									OFFSET 6.292450 5.785301 -0.669000
									CHANNELS 3 Xrotation Yrotation Zrotation
									JOINT LeftArm
									{
										OFFSET 13.907140 -6.093903 1.965100
										CHANNELS 3 Xrotation Yrotation Zrotation
										JOINT LeftForeArm
										{
											OFFSET 34.140198 0.000000 0.000000
											CHANNELS 3 Xrotation Yrotation Zrotation
											JOINT LeftHand
											{
												OFFSET 40.960209 0.000000 0.000000
												CHANNELS 3 Xrotation Yrotation Zrotation
												End Site
												{
													OFFSET 0 0 0
												}
											}
										}
									}
								}
							}
						}
						JOINT RightShoulder_virtual
						{
							OFFSET 0.000000 0.000000 0.000000
							CHANNELS 3 Xrotation Yrotation Zrotation
							JOINT RightShoulder
							{
								OFFSET -6.292450 5.785301 -0.669000
								CHANNELS 3 Xrotation Yrotation Zrotation
								JOINT RightShoulder_split
								{
									OFFSET -6.292450 5.785301 -0.669000
									CHANNELS 3 Xrotation Yrotation Zrotation
									JOINT RightArm
									{
										OFFSET -13.907140 -6.093903 1.965100
										CHANNELS 3 Xrotation Yrotation Zrotation
										JOINT RightForeArm
										{
											OFFSET -34.140198 0.000000 0.000000
											CHANNELS 3 Xrotation Yrotation Zrotation
											JOINT RightHand
											{
												OFFSET -40.960209 0.000000 0.000000
												CHANNELS 3 Xrotation Yrotation Zrotation
												End Site
												{
													OFFSET 0 0 0
												}
											}
										}
									}
								}
							}
						}
					}
				}
			}
		}
	}
}
MOTION
Frames: 7
Frame Time: 0.03333333
-1.562977 115.988335 4.617443 0.000000 0.000000 0.000000 -2.859057 -6.038037 8.921006 -29.223152 2.397637 3.923160 20.858491 9.848587 5.371306 27.661271 5.850983 -5.017564 -5.501442 0.840604 0.519068 0.000000 0.000000 0.000000 -2.091734 -5.176337 8.327891 -1.130435 -9.906652 8.509273 9.772163 -6.574669 -0.782416 -5.846320 -8.791102 -21.330705 -5.674091 2.081161 -1.275582 0.000000 0.000000 0.000000 -2.954276 -10.204175 8.085279 -0.289413 0.946184 -2.949300 2.448566 3.125405 -4.588816 0.723264 -2.970969 -0.150045 0.000000 0.000000 0.000000 0.605751 3.009095 -4.463877 2.840357 -0.980846 0.999458 10.064840 10.624610 8.349520 0.000000 0.000000 0.000000 1.284848 2.848424 -4.856808 -0.178059 3.567475 -0.845918 -4.511302 0.512817 -1.415035 -15.874282 6.226869 -21.354238 0.216788 -18.570601 -1.109962 0.000000 0.000000 0.000000 1.028933 3.099850 -4.445132 1.294023 -3.025414 5.727519 -3.352589 0.317294 -1.257630 -48.884497 33.113741 15.256312 -0.356049 12.541768 0.371817 0.000000 0.000000 0.000000 
-2.415706 115.133301 5.647728 0.000000 0.000000 0.000000 -3.877762 -7.028508 9.026187 -31.082511 4.126154 1.653968 20.021004 10.363417 5.247137 28.445486 6.299892 -5.121981 -4.979711 0.778669 0.563764 0.000000 0.000000 0.000000 -2.504599 -7.175457 8.614188 -1.581217 -11.097470 8.021623 11.150978 -6.820440 -0.314663 -3.719573 -9.365691 -20.300748 -9.689892 1.863317 -0.643925 0.000000 0.000000 0.000000 -3.963444 -10.835990 8.317741 0.020751 1.020522 -3.371209 2.565418 3.509019 -4.522967 0.604216 -2.317258 -0.091776 0.000000 0.000000 0.000000 0.710111 3.412932 -4.441322 2.929573 -1.097174 1.255066 9.671199 10.515383 8.284243 0.000000 0.000000 0.000000 1.402411 3.265183 -4.730192 -0.179753 3.690879 0.474515 -5.042243 0.427315 -0.616209 -18.299692 6.866425 -19.792509 -0.242287 -18.255101 -1.056860 0.000000 0.000000 0.000000 1.189889 3.456292 -4.419624 1.153784 -3.225160 5.359521 -3.360136 0.963248 -1.599280 -49.692724 35.365613 15.315487 -0.088523 14.243224 -0.099014 0.000000 0.000000 0.000000 
-3.219995 114.237289 7.215111 0.000000 0.000000 0.000000 -4.636989 -10.766548 9.039990 -31.913711 6.430262 -2.190285 20.050712 11.349149 4.966534 30.172142 7.814063 -6.303354 -3.906709 0.718915 0.639532 0.000000 0.000000 0.000000 -3.145897 -11.265515 8.984407 -1.808093 -11.128896 7.308348 14.437987 -6.779334 0.251560 -2.240117 -9.683931 -18.011554 -12.200554 1.260259 0.340843 0.000000 0.000000 0.000000 -5.176407 -13.203390 8.462646 0.161553 1.614046 -3.890209 2.711798 4.357429 -4.364755 0.547421 -1.643256 0.115300 0.000000 0.000000 0.000000 0.865117 4.300749 -4.303800 2.807965 -1.196136 1.281420 9.566897 10.227151 7.955500 0.000000 0.000000 0.000000 1.491898 4.219573 -4.418282 -0.295200 3.695802 2.327202 -5.093755 0.702238 -0.501626 -20.013547 8.069725 -16.180985 -0.493939 -18.084379 -0.847368 0.000000 0.000000 0.000000 1.399676 4.269087 -4.288804 1.133768 -3.647513 4.720577 -2.963338 0.943603 -1.356085 -50.514669 39.570062 14.696042 0.225025 16.174907 -0.562939 0.000000 0.000000 0.000000 
-4.240605 113.619576 9.197350 0.000000 0.000000 0.000000 -5.073609 -16.035939 8.879831 -31.662052 8.649735 -6.793056 20.866264 12.800557 4.641314 32.189975 10.380451 -8.137954 -2.161430 0.727929 0.416093 0.000000 0.000000 0.000000 -3.609086 -16.207282 9.123127 -1.220504 -10.117092 7.108897 17.117173 -6.714521 0.334092 -3.659123 -9.138101 -16.247125 -11.520805 0.624680 1.284778 0.000000 0.000000 0.000000 -6.222186 -16.470282 8.247716 0.213586 2.534364 -4.329839 2.858220 5.456655 -4.108367 0.612395 -1.379123 0.448702 0.000000 0.000000 0.000000 1.004019 5.444684 -4.020110 2.489594 -1.193325 1.139777 9.729731 9.947139 7.371080 0.000000 0.000000 0.000000 1.537566 5.455492 -3.975436 -0.470882 3.619447 4.324872 -4.547551 1.225632 -0.965373 -20.810437 9.778569 -11.403318 -0.640695 -17.243943 -0.562649 0.000000 0.000000 0.000000 1.622210 5.373915 -4.043376 1.193630 -4.201400 3.904294 -2.487217 0.391832 -0.667200 -50.893485 44.680027 13.198649 0.513727 17.639389 -0.972527 0.000000 0.000000 0.000000 
-5.412344 113.386528 10.942299 0.000000 0.000000 0.000000 -5.167079 -21.804617 8.441147 -30.992410 10.523990 -11.337803 21.815776 14.769393 4.364587 33.658575 13.872784 -9.460457 -0.489205 0.732450 -0.147827 0.000000 0.000000 0.000000 -3.842272 -21.021391 8.822640 0.233078 -8.683089 7.711996 18.635684 -6.943719 -0.056781 -7.505228 -7.571279 -15.922626 -8.697059 0.328269 1.906085 0.000000 0.000000 0.000000 -6.566911 -20.260211 7.682045 0.056799 3.530059 -4.492983 2.921413 6.574122 -3.770822 0.692811 -1.061354 0.557709 0.000000 0.000000 0.000000 1.116495 6.595965 -3.640368 2.175799 -1.062013 0.951272 10.065663 9.912787 6.598710 0.000000 0.000000 0.000000 1.525595 6.697929 -3.496571 -0.664733 3.576139 6.040141 -3.898627 1.806782 -1.190774 -20.983379 11.732146 -6.314673 -0.801267 -15.707994 -0.270189 0.000000 0.000000 0.000000 1.764303 6.527392 -3.706474 1.312232 -4.737428 3.123629 -2.115655 -0.118667 0.007374 -50.956169 49.648966 11.138054 0.690691 18.260695 -1.271019 0.000000 0.000000 0.000000 
-6.856004 113.281189 12.334560 0.000000 0.000000 0.000000 -5.222687 -27.022090 7.628458 -30.260310 11.615016 -15.034104 22.867456 16.184844 4.228476 33.997021 17.315687 -10.222029 -0.549053 0.680395 -0.675474 0.000000 0.000000 0.000000 -4.099675 -24.992574 8.099102 1.693443 -7.761449 8.844836 19.546888 -7.192052 -0.680647 -10.266773 -5.340604 -15.334956 -8.211276 0.372551 1.756435 0.000000 0.000000 0.000000 -6.462925 -24.028971 6.762916 -0.347200 4.343675 -4.359089 2.803982 7.526317 -3.432918 1.163159 -0.729759 0.305845 0.000000 0.000000 0.000000 1.157480 7.552788 -3.285647 2.169852 -0.778257 0.810555 10.472357 10.231220 5.770403 0.000000 0.000000 0.000000 1.435880 7.743175 -3.097886 -0.827016 3.597069 7.177010 -3.701006 2.207476 -1.316800 -21.082921 13.693232 -1.509771 -1.122812 -13.895200 -0.064205 0.000000 0.000000 0.000000 1.733259 7.538694 -3.381949 1.453938 -5.211576 2.448644 -1.759026 -0.259350 0.438071 -51.010431 53.781961 9.165705 0.701259 18.241738 -1.414778 0.000000 0.000000 0.000000 
-8.739493 113.160019 13.934223 0.000000 0.000000 0.000000 -5.315827 -31.176077 6.674770 -29.329232 11.921977 -17.662294 24.197569 16.726525 4.156719 32.270318 20.498409 -9.946966 -2.778623 0.607844 -0.977057 0.000000 0.000000 0.000000 -4.182991 -27.868275 7.127648 2.148629 -7.919930 9.923106 21.246055 -6.374483 -1.340637 -9.290994 -2.643327 -11.979827 -13.801423 0.627213 0.491631 0.000000 0.000000 0.000000 -6.100422 -27.718803 5.577372 -0.873887 4.890360 -3.963549 2.490387 8.261028 -3.222226 1.709408 0.094890 0.338261 0.000000 0.000000 0.000000 1.119962 8.235705 -3.095488 2.619807 -0.401856 0.870160 10.806120 10.963698 5.055658 0.000000 0.000000 0.000000 1.214054 8.491047 -2.908172 -0.940240 3.798557 7.626624 -3.625298 2.171267 -1.007820 -21.879155 15.218179 2.528115 -1.655150 -12.314589 0.005565 0.000000 0.000000 0.000000 1.484437 8.289328 -3.205290 1.583781 -5.661910 1.984902 -1.464363 -0.129807 0.504657 -51.759146 56.747308 8.250092 0.572346 17.969796 -1.450132 0.000000 0.000000 0.000000 
